<?xml version="1.0" standalone="no"?><svg xmlns="http://www.w3.org/2000/svg"><metadata>Created by youziku.com at Wed, 23 Sep 2015 12:12:55 GMT</metadata><defs><font id="YouYuan" horiz-adv-x="256" ><font-face font-family="YouYuan" font-weight="400" font-stretch="normal" font-style="normal" units-per-em="256" panose-1="2 1 6 0 3 1 1 1 1 1" ascent="220" descent="-36" bbox="0 -46.151 256 220" underline-thickness="10" underline-position="-15" unicode-range="U+0020-FFE5"  /><missing-glyph /><glyph glyph-name="" unicode="" /><glyph glyph-name="space" unicode=" "  horiz-adv-x="128" /><glyph glyph-name="hyphen" unicode="-" d="M8 89v9h111v-9h-111z" horiz-adv-x="128" /><glyph glyph-name="uni4E00" unicode="&#x4E00;" d="M22 96h216c5 -4 5 -8 0 -12h-216c-5 4 -5 8 0 12z" /><glyph glyph-name="uni4E0E" unicode="&#x4E0E;" d="M228 84c-2 -61 7 -118 -46 -118c-21 0 -42 7 -62 16c-3 8 0 11 8 10c94 -41 86 17 88 88c0 8 -3 12 -12 12h-140c-13 -1 -20 7 -18 26l10 78c18 15 9 -22 8 -32h156c7 -4 7 -8 0 -12h-158c1 -15 -13 -49 6 -48h140c15 0 21 -7 20 -20zM184 54c7 -5 7 -9 0 -12h-162
c-7 4 -7 8 0 12h162z" /><glyph glyph-name="uni4E2A" unicode="&#x4E2A;" d="M122 196c5 6 11 5 16 0c36 -40 72 -71 108 -94c4 -8 1 -11 -8 -10c-33 20 -69 50 -104 90c-3 4 -5 4 -8 0c-29 -39 -67 -69 -114 -90c-8 -1 -10 2 -6 10c48 23 86 55 116 94zM136 132v-162c-4 -5 -8 -5 -12 0v162c4 7 8 7 12 0z" /><glyph glyph-name="uni4E4B" unicode="&#x4E4B;" d="M112 202c9 -16 17 -31 22 -44c-1 -7 -5 -8 -12 -4c-5 13 -13 27 -22 42c0 8 4 10 12 6zM22 148h180c20 0 27 -8 18 -22c-30 -46 -80 -85 -148 -118c40 -36 98 -21 166 -24c5 -4 5 -8 0 -12c-77 4 -125 -13 -176 28c-10 8 -25 -1 -42 -24c-7 -1 -9 1 -8 8
c13 20 29 30 46 30c67 31 115 69 148 114c4 6 2 8 -10 8h-174c-5 4 -5 8 0 12z" /><glyph glyph-name="uni4E86" unicode="&#x4E86;" d="M30 194h174c24 -1 32 -9 20 -20c-23 -21 -53 -39 -86 -58c-7 -4 -7 -8 -2 -12c47 -32 51 -134 -20 -136c-15 0 -29 3 -42 12c-6 27 27 -6 38 0c64 -2 56 95 12 118c-9 8 -7 18 8 28c27 17 53 33 76 50c6 5 3 6 -12 6h-166c-5 4 -5 8 0 12z" /><glyph glyph-name="uni4F18" unicode="&#x4F18;" d="M62 196c-1 -16 -6 -38 -14 -66v-158c-4 -7 -8 -7 -12 0v134c-7 -16 -13 -28 -20 -36c-7 -3 -10 -1 -10 6c24 36 39 76 44 120c4 7 8 7 12 0zM130 196c4 5 8 5 12 0l-2 -48h98c7 -4 7 -8 0 -12h-98c-7 -73 -31 -130 -74 -170c-7 0 -9 3 -6 10c39 39 61 92 68 160h-58
c-7 4 -7 8 0 12h58zM164 196c19 -8 36 -17 52 -26c3 -7 1 -10 -6 -10c-20 11 -37 19 -52 24c-3 8 -1 12 6 12zM152 124c4 7 8 7 12 0v-126c-2 -22 22 -12 40 -14c17 -3 25 12 24 44c4 8 8 8 12 0c2 -56 -17 -56 -64 -56c-16 0 -24 7 -24 26v126z" /><glyph glyph-name="uni5236" unicode="&#x5236;" d="M40 198c20 11 8 -21 4 -32h36c1 12 -5 46 12 32v-32h62c7 -4 7 -8 0 -12h-62v-32h76c5 -4 5 -8 0 -12h-76v-32c24 -2 65 8 60 -20c-5 -31 14 -84 -22 -84c-10 0 -43 7 -24 18c11 -5 18 -7 22 -6c9 -1 12 3 12 14v54c3 20 -31 9 -48 12v-96c-4 -5 -8 -5 -12 0v96
c-17 -3 -48 8 -48 -12v-80c-4 -5 -8 -5 -12 0v84c-2 29 35 18 60 20v32h-68c-5 4 -5 8 0 12h68v32h-40c-4 -9 -9 -18 -14 -26c-7 -3 -10 -1 -10 6c13 21 21 43 24 64zM232 190v-196c3 -34 -27 -31 -54 -22c-5 7 -4 11 4 12c27 -9 38 -6 38 10v196c4 5 8 5 12 0zM192 178
v-160c-4 -7 -8 -7 -12 0v160c4 8 8 8 12 0z" /><glyph glyph-name="uni529F" unicode="&#x529F;" d="M158 198c16 16 11 -22 12 -34c27 -2 68 9 68 -22c0 -77 -3 -126 -8 -146c-9 -32 -47 -32 -78 -20c-5 7 -4 11 4 12c35 -13 55 -9 62 12c7 23 8 69 8 140c0 20 -38 9 -56 12c-1 -85 -33 -146 -94 -182c-8 0 -10 3 -6 10c57 33 87 91 88 172h-50c-5 4 -5 8 0 12h50v34z
M18 180h84c14 -19 -27 -10 -40 -12v-152c17 8 31 15 40 20c8 0 9 -4 4 -12c-29 -16 -58 -29 -86 -38c-8 1 -9 5 -4 12c12 4 23 8 34 12v158c-12 1 -46 -5 -32 12z" /><glyph glyph-name="uni52A8" unicode="&#x52A8;" d="M168 196c4 8 8 8 12 0v-44c25 -2 62 9 62 -20c0 -80 -2 -129 -8 -146c-7 -20 -25 -23 -56 -10c-4 7 -3 11 4 12c24 -11 38 -9 42 6c5 20 6 65 6 134c0 20 -33 9 -50 12c1 -77 -14 -135 -46 -174c-8 -3 -11 0 -10 8c31 36 45 91 44 166c-11 0 -49 -2 -30 12h30v44zM34 170
h80c7 -4 7 -8 0 -12h-80c-7 4 -7 8 0 12zM14 110h112c5 -4 5 -8 0 -12h-56c-4 -35 -13 -68 -28 -100c21 3 43 7 66 12c-4 15 -10 31 -18 50c1 7 5 8 12 4c11 -25 19 -53 24 -82c-8 -14 -16 4 -16 16c-31 -7 -58 -11 -82 -14c-5 1 -6 5 -2 12c15 21 25 55 32 102h-44
c-7 3 -7 7 0 12z" /><glyph glyph-name="uni5355" unicode="&#x5355;" d="M184 200c8 4 12 3 12 -4c-7 -13 -15 -25 -24 -36c25 1 50 1 46 -24c-5 -32 15 -84 -24 -84h-64v-24h108c5 -4 5 -8 0 -12h-108v-48c-4 -7 -8 -7 -12 0v48h-104c-5 4 -5 8 0 12h104v24c-33 6 -91 -16 -88 24c3 32 -14 86 24 84h26c-5 9 -13 21 -24 34c-1 8 2 11 10 8
c15 -19 24 -33 28 -42h62c12 13 21 27 28 40zM118 148c-33 -5 -88 19 -76 -36h76v36zM206 112c13 54 -43 31 -76 36v-36h76zM118 100h-76c0 -17 -3 -40 16 -36h60v36zM206 100h-76v-36c26 5 78 -14 76 16v20z" /><glyph glyph-name="uni540E" unicode="&#x540E;" d="M216 200c7 -3 7 -7 2 -12c-37 -7 -92 -11 -164 -14c-11 -3 -4 -27 -6 -40h194c5 -4 5 -8 0 -12h-194c2 -63 -1 -109 -30 -150c-7 -3 -10 -1 -10 6c36 49 27 114 28 192c0 11 6 16 18 16c65 1 119 6 162 14zM100 94h100c43 1 18 -62 24 -98c3 -16 -6 -22 -22 -22h-106
c-13 -1 -20 5 -20 20c0 36 -18 100 24 100zM212 70c1 8 -3 12 -14 12h-96c-9 0 -14 -4 -14 -12v-72c0 -9 4 -12 12 -12h100c9 -1 12 3 12 12v72z" /><glyph glyph-name="uni542F" unicode="&#x542F;" d="M108 196c6 25 23 -15 24 -20c31 -4 91 13 90 -20c-1 -27 8 -52 -24 -52h-156c1 -63 -7 -105 -26 -126c-8 -4 -11 -2 -10 6c26 26 24 107 24 172c0 34 58 15 88 20c-1 4 -5 11 -10 20zM194 164h-140c-20 0 -9 -31 -12 -48h152c23 -4 14 18 16 36c1 8 -4 12 -16 12zM82 76
h124c40 2 19 -53 24 -86c2 -16 -6 -22 -22 -22h-128c-36 -3 -22 53 -22 84c0 16 8 24 24 24zM202 64h-116c-28 -1 -16 -47 -16 -72c0 -9 4 -12 12 -12h120c30 -3 11 44 16 68c2 11 -4 16 -16 16z" /><glyph glyph-name="uni544A" unicode="&#x544A;" d="M122 196c16 16 12 -21 12 -32h86c7 -4 7 -8 0 -12h-86v-54h108c7 -4 7 -8 0 -12h-228c-7 4 -7 8 0 12h108v54h-68c-5 -12 -13 -24 -22 -36c-7 -3 -10 -1 -10 6c16 21 27 46 34 74c21 11 5 -24 2 -32h64v32zM62 64h134c33 1 16 -48 20 -76c1 -15 -6 -20 -22 -20h-132
c-33 -4 -22 46 -22 74c0 15 7 22 22 22zM192 52h-128c-22 -1 -12 -38 -12 -58c0 -11 5 -14 14 -14h124c26 -3 9 39 14 60c1 8 -3 12 -12 12z" /><glyph glyph-name="uni5458" unicode="&#x5458;" d="M62 198h128c27 2 19 -25 20 -48c1 -15 -5 -20 -20 -20h-128c-24 -5 -20 26 -20 48c0 13 7 20 20 20zM186 186h-120c-16 1 -11 -18 -12 -32c0 -9 4 -12 12 -12h120c18 -4 11 17 12 32c1 8 -3 12 -12 12zM54 110h148c15 0 20 -7 20 -20v-76c-7 -7 -12 -7 -12 0v72
c1 8 -3 12 -12 12h-140c-8 0 -12 -4 -12 -12v-68c-4 -7 -8 -7 -12 0c6 32 -16 92 20 92zM114 78c4 7 8 7 12 0c4 -64 -32 -101 -108 -112c-7 1 -7 5 -2 12c69 12 102 45 98 100zM150 14c31 -11 61 -23 90 -36c5 -7 4 -11 -4 -12c-32 13 -63 25 -92 36c-4 7 -2 11 6 12z" /><glyph glyph-name="uni5728" unicode="&#x5728;" d="M96 176c1 8 10 39 18 20l-6 -20h126c8 -4 8 -8 0 -12h-128c-12 -32 -28 -59 -48 -80v-116c-4 -7 -8 -7 -12 0v106c-9 -9 -20 -17 -32 -22c-8 -1 -10 2 -6 10c39 23 67 57 86 102h-76c-7 4 -7 8 0 12h78zM146 136c4 7 8 7 12 0v-52h68c7 -4 7 -8 0 -12h-68v-88h84
c5 -4 5 -8 0 -12h-172c-7 4 -7 8 0 12h76v88h-64c-7 3 -7 7 0 12h64v52z" /><glyph glyph-name="uni5927" unicode="&#x5927;" d="M130 196v-52h112c7 -4 7 -8 0 -12h-112c24 -83 61 -134 112 -154c5 -5 4 -9 -4 -12c-51 21 -88 67 -112 138c-13 -67 -49 -113 -108 -138c-8 1 -9 5 -4 12c61 27 96 78 104 154h-100c-7 4 -7 8 0 12h100v52c4 7 8 7 12 0z" /><glyph glyph-name="uni594B" unicode="&#x594B;" d="M112 200c12 12 13 -9 10 -18h108c7 -4 7 -8 0 -12h-80c29 -41 61 -65 94 -72c10 -19 -16 -9 -28 -4v-96c1 -17 -7 -24 -24 -24h-132c-16 -1 -24 7 -24 24v96c-7 -3 -15 -5 -24 -8c-8 0 -9 4 -4 12c55 17 88 41 100 72h-92c-5 4 -5 8 0 12h94zM122 170
c-13 -32 -37 -55 -70 -68h150c-24 15 -46 37 -66 68h-14zM120 90c-25 -4 -71 12 -72 -16v-28h72v44zM204 74c2 28 -48 12 -72 16v-44h72v28zM120 34h-72c2 -19 -7 -48 16 -48h56v48zM204 34h-72v-48c25 5 72 -13 72 16v32z" /><glyph glyph-name="uni5973" unicode="&#x5973;" d="M102 194c7 5 11 4 12 -4c-5 -17 -11 -33 -16 -46h142c13 -20 -31 -10 -44 -12c-7 -41 -21 -77 -44 -108c33 -16 61 -31 82 -46c3 -8 0 -11 -8 -10c-20 13 -47 29 -82 46c-29 -25 -70 -41 -122 -46c-7 3 -7 7 -2 12c43 4 80 17 112 40c-23 11 -45 21 -68 30
c-9 4 -12 13 -6 26c8 18 16 36 24 56h-70c-5 4 -5 8 0 12h72c8 17 14 34 18 50zM184 132h-90c-7 -19 -15 -38 -24 -58c-3 -5 -2 -10 2 -14c21 -9 44 -19 68 -30c23 29 37 63 44 102z" /><glyph glyph-name="uni5B66" unicode="&#x5B66;" d="M104 196c0 7 3 9 10 8c13 -20 23 -38 30 -54h36c9 11 18 27 26 48c5 4 9 3 12 -4c-4 -11 -11 -25 -22 -44c44 4 55 -5 34 -62c-5 -4 -9 -3 -12 4c13 31 14 46 2 46h-180c-19 1 -10 -28 -12 -44c-18 -14 -11 24 -12 36c-2 24 24 20 46 20c-5 9 -13 21 -24 36c0 5 3 8 8 8
c13 -16 23 -31 30 -44h54c-7 15 -15 30 -26 46zM52 110h114c20 0 28 -5 24 -16c-4 -5 -19 -15 -48 -26c-18 -7 1 -14 4 -22h96c5 -4 5 -8 0 -12h-90c34 -72 -39 -91 -80 -58c-3 5 -1 9 6 10c34 -29 93 -14 60 48h-118c-5 4 -5 8 0 12h112c-9 7 -22 23 -2 30
c37 14 49 22 34 22h-112c-5 4 -5 8 0 12z" /><glyph glyph-name="uni5BFB" unicode="&#x5BFB;" d="M40 194h160c36 1 15 -54 20 -84c3 -19 -11 -22 -30 -20v-24h54c5 -4 5 -8 0 -12h-54v-68c3 -23 -21 -26 -72 -10c-3 7 -1 11 6 12c80 -35 47 17 54 66h-160c-5 4 -5 8 0 12h160v24h-138c-5 4 -5 8 0 12h156c19 -4 10 21 12 36h-166c-5 4 -5 8 0 12h166c-2 15 6 32 -12 32
h-156c-5 4 -5 8 0 12zM76 44c11 -13 20 -29 28 -46c0 -8 -3 -11 -10 -8c-8 16 -17 31 -28 46c0 7 3 9 10 8z" /><glyph glyph-name="uni5C31" unicode="&#x5C31;" d="M62 192c10 21 17 -14 20 -22h48c4 -4 4 -8 0 -12h-116c-5 4 -5 8 0 12h56c-3 9 -5 17 -8 22zM174 194v-48h62c14 -18 -24 -11 -36 -12v-148c0 -7 5 -9 16 -8c9 -3 13 17 12 60c4 5 8 5 12 0c3 -52 -7 -76 -28 -72c-16 -1 -24 5 -24 20v148h-14c0 -67 -14 -122 -42 -166
c-9 -4 -13 -1 -10 8c28 45 41 98 40 158c-10 -2 -40 1 -22 12h22v48c4 5 8 5 12 0zM22 120c-2 35 49 19 78 22c32 3 19 -30 22 -56c3 -27 -22 -19 -44 -20c-9 -44 28 -124 -46 -94c-5 5 -4 9 4 12c21 -9 30 -9 30 0v82c-24 1 -44 -7 -44 22v32zM100 130h-56
c-17 0 -10 -26 -10 -40c0 -9 3 -13 8 -12h56c21 -4 9 26 12 42c1 7 -2 10 -10 10zM36 54c5 7 9 6 12 -2c-7 -24 -17 -48 -32 -72c-8 -3 -11 -1 -10 6c15 27 25 49 30 68zM96 48c1 8 5 9 12 4c5 -13 11 -31 18 -54c-3 -8 -7 -9 -12 -2c-5 17 -11 35 -18 52zM196 182
c-3 7 -1 10 6 10c12 -9 23 -19 32 -28c3 -8 0 -11 -8 -8c-13 12 -23 21 -30 26z" /><glyph glyph-name="uni5DE5" unicode="&#x5DE5;" d="M28 188h198c7 -4 7 -8 0 -12h-92v-188h108c7 -4 7 -8 0 -12h-230c-7 4 -7 8 0 12h110v188h-94c-7 4 -7 8 0 12z" /><glyph glyph-name="uni5E7D" unicode="&#x5E7D;" d="M72 190c7 5 11 4 12 -4c-12 -37 -22 -65 -30 -84l30 2c3 5 7 19 14 40c7 5 11 4 12 -4c-12 -41 -31 -84 -56 -128l42 6c-4 15 -8 25 -12 32c1 9 5 11 12 6c8 -21 15 -41 20 -60c-6 -18 -16 2 -16 10l-54 -8c-11 0 -13 5 -6 16c13 20 27 46 40 78c-14 2 -50 -11 -40 10
c10 22 21 51 32 88zM132 198v-218h76c12 -1 16 4 16 16v172c4 7 8 7 12 0v-176c1 -17 -7 -24 -24 -24h-172c-16 -1 -24 7 -24 24v176c4 5 8 5 12 0v-172c0 -12 5 -16 16 -16h76v218c4 5 8 5 12 0zM176 186c7 5 11 4 12 -4c-11 -33 -21 -60 -30 -80l30 2c5 11 11 24 16 40
c7 5 11 4 12 -4c-16 -48 -36 -89 -60 -124l44 8c-5 16 -9 27 -12 32c3 7 7 8 12 4c9 -23 16 -43 20 -62c-3 -8 -7 -9 -12 -4c-1 7 -3 13 -4 18l-52 -8c-12 0 -15 6 -8 16c10 15 24 39 40 72c-15 2 -52 -12 -40 10c12 24 23 52 32 84z" /><glyph glyph-name="uni5E8F" unicode="&#x5E8F;" d="M120 198c0 7 3 9 10 6c5 -8 10 -16 14 -24h94c5 -4 5 -8 0 -12h-188c-8 0 -12 -4 -12 -12c-1 -70 6 -143 -18 -190c-8 -4 -11 -1 -10 8c24 50 14 117 16 186c0 13 7 20 20 20h84c-3 5 -6 11 -10 18zM62 150h140c16 0 22 -7 18 -20c-13 -21 -38 -37 -74 -46
c14 -27 104 13 96 -34c-3 -19 -15 -35 -34 -48c-9 0 -11 3 -6 10c16 12 25 25 28 38c2 8 -1 12 -12 12h-64c-8 -42 23 -110 -34 -102c-19 3 -30 6 -34 10c-3 7 -1 10 6 10c78 -36 41 35 50 82h-92c-5 4 -5 8 0 12h92l-48 40c-1 8 1 11 8 8c12 -9 23 -19 34 -28
c31 7 54 18 70 36c4 5 1 8 -8 8h-136c-5 4 -5 8 0 12z" /><glyph glyph-name="uni5F00" unicode="&#x5F00;" d="M32 192h196c14 -19 -27 -10 -40 -12v-78h56c5 -4 5 -8 0 -12h-56v-118c-4 -5 -8 -5 -12 0v118h-96c1 -56 -11 -97 -36 -122c-8 -1 -11 1 -8 8c24 28 35 66 32 114h-56c-5 4 -5 8 0 12h56v78c-12 1 -50 -6 -36 12zM176 180h-96v-78h96v78z" /><glyph glyph-name="uni60F3" unicode="&#x60F3;" d="M56 198c17 14 11 -21 12 -32c13 -2 55 7 42 -12h-40c17 -21 31 -40 40 -56c0 -8 -3 -10 -10 -6c-8 13 -19 28 -32 44v-74c-4 -5 -8 -5 -12 0v70c-11 -21 -24 -41 -40 -58c-9 -3 -12 1 -8 10c16 17 31 41 46 70h-40c-11 21 29 8 42 12v32zM128 172c0 34 51 20 80 20
c15 0 20 -7 20 -20v-92c4 -35 -51 -15 -80 -20c-13 -3 -20 4 -20 20v92zM216 152c11 44 -37 24 -64 28c-14 2 -12 -15 -12 -28h76zM216 140h-76v-28h76v28zM216 100h-76c0 -13 -2 -32 12 -28h52c17 -4 11 14 12 28zM124 58c12 -16 24 -34 36 -54c0 -8 -4 -10 -12 -6
c-11 20 -22 37 -34 52c0 8 3 11 10 8zM88 46c4 -21 -10 -64 12 -64c38 10 98 -25 88 32c4 5 8 5 12 0c9 -69 -54 -37 -104 -44c-32 -4 -16 49 -20 76c4 5 8 5 12 0zM48 42c-3 -27 -10 -51 -22 -74c-7 -3 -11 -1 -12 6c12 23 19 45 22 68c4 5 8 5 12 0zM210 46
c15 -20 25 -43 32 -70c-1 -7 -5 -8 -10 -4c-9 27 -20 49 -32 68c0 7 3 9 10 6z" /><glyph glyph-name="uni6167" unicode="&#x6167;" d="M66 104v16h-48c-5 4 -5 8 0 12h48v16c-13 2 -53 -7 -40 12h40v16h-48c-5 3 -5 7 0 12h48c-3 10 5 25 12 12v-12c13 -2 53 7 40 -12h-40v-16c12 -1 50 6 36 -12h-36v-16c13 -2 51 6 38 -12h-38v-16h96v16c-14 2 -57 -8 -44 12h44v16c-12 1 -48 -5 -34 12h34v16
c-14 2 -57 -8 -44 12h44c-3 10 6 22 12 10v-10h48c5 -5 5 -9 0 -12h-48v-16c13 -2 53 7 40 -12h-40v-16h52c5 -4 5 -8 0 -12h-52v-16c37 5 51 -7 44 -46c1 -16 -6 -22 -22 -22h-170c-7 4 -7 8 0 12h168c11 -2 13 5 12 16h-176c-7 4 -7 8 0 12h176c1 11 1 16 -12 16h-168
c-16 12 17 14 28 12zM118 22c0 9 4 12 12 8c5 -9 12 -22 20 -38c-1 -7 -5 -9 -12 -6c-7 13 -13 25 -20 36zM46 24c7 5 11 4 12 -4c-11 -21 -21 -37 -30 -48c-8 -3 -11 0 -10 8c11 13 20 28 28 44zM78 20c24 22 -1 -45 24 -40c33 7 85 -21 76 28c4 7 8 7 12 0
c9 -62 -48 -33 -92 -40c-26 -4 -19 29 -20 52zM198 22c-1 8 2 11 10 8c16 -20 27 -36 32 -48c1 -8 -2 -11 -10 -8c-8 15 -19 31 -32 48z" /><glyph glyph-name="uni6210" unicode="&#x6210;" d="M154 154c3 -40 9 -75 18 -106c15 24 25 48 30 72c5 5 9 5 12 -2c-7 -28 -19 -56 -36 -84c15 -31 29 -49 42 -56c8 0 11 19 10 56c4 7 8 7 12 0c-2 -45 5 -72 -28 -68c-16 9 -31 29 -46 60c-20 -21 -47 -39 -80 -54c-8 1 -9 5 -4 12c31 13 57 31 78 54
c-11 32 -17 71 -20 116h-88c-22 2 -15 -25 -16 -44c31 -3 80 12 76 -26c-5 -51 4 -109 -70 -66c-4 8 -2 12 6 12c65 -40 46 14 52 52c4 26 -42 12 -64 16c2 -54 -3 -103 -24 -130c-7 -4 -10 -2 -10 6c27 42 21 101 22 166c1 45 76 19 116 26c0 11 -7 48 10 32l2 -32h62
l-14 22c0 7 3 9 10 8c11 -16 21 -34 30 -54c-3 -21 -19 7 -20 12h-68z" /><glyph glyph-name="uni6211" unicode="&#x6211;" d="M156 200l4 -74h82c7 -4 7 -8 0 -12h-80c3 -27 7 -50 14 -70c15 20 27 40 36 60c7 3 10 1 10 -6c-8 -20 -21 -43 -40 -68c21 -37 53 -92 52 -4c3 5 7 5 12 0c3 -102 -53 -57 -74 -4c-16 -16 -36 -31 -60 -46c-8 0 -10 3 -6 10c25 16 45 32 60 48c-8 23 -13 49 -16 80h-66
v-50c15 5 29 11 44 18c8 -1 9 -5 4 -12c-13 -7 -29 -13 -48 -20c-5 -34 16 -92 -26 -84c-12 2 -23 5 -34 10c-5 7 -4 11 4 12c67 -34 37 19 44 58c-17 -7 -35 -12 -52 -16c-8 1 -9 5 -4 12c23 7 41 13 56 18v54h-56c-5 4 -5 8 0 12h56v42c-17 -4 -33 -7 -46 -8
c-7 1 -7 5 -2 12c35 4 67 12 98 24c7 -1 8 -5 4 -12c-9 -4 -23 -9 -42 -14v-44h64l-4 74c4 5 8 5 12 0zM192 192c11 -15 21 -31 30 -50c-1 -9 -5 -11 -12 -4c-9 16 -19 32 -30 48c1 9 5 11 12 6z" /><glyph glyph-name="uni6218" unicode="&#x6218;" d="M168 198v-56h72c5 -4 5 -8 0 -12h-72c3 -39 7 -68 12 -88c17 24 29 47 36 68c7 4 11 3 12 -4c-7 -21 -21 -47 -42 -78c11 -29 21 -45 32 -48c11 3 15 22 14 58c4 7 8 7 12 0c1 -45 -7 -69 -26 -72c-15 1 -29 19 -42 54c-17 -17 -38 -34 -62 -50c-8 -1 -10 2 -6 10
c25 17 46 35 62 52c-7 23 -11 55 -14 98c-13 2 -53 -7 -40 12h40v56c4 5 8 5 12 0zM52 194c15 14 12 -17 12 -28h56c5 -4 5 -8 0 -12h-56v-44c22 0 53 4 48 -20c-6 -33 16 -99 -20 -96c-28 3 -76 -13 -72 20c5 36 -21 103 32 96v84zM200 194c15 -15 25 -27 32 -38
c1 -8 -1 -11 -8 -8c-9 12 -20 25 -32 38c-1 8 1 11 8 8zM100 86c1 21 -37 12 -56 12c-8 0 -12 -4 -12 -12v-68c0 -23 36 -8 56 -12c9 -1 12 3 12 12v68z" /><glyph glyph-name="uni6309" unicode="&#x6309;" d="M58 196v-56c11 1 38 2 24 -12h-24v-62c9 3 19 7 28 12c8 -1 9 -5 4 -12c-7 -4 -17 -9 -32 -14c-5 -44 19 -104 -44 -80c-16 24 44 -4 32 16v60c-5 -3 -15 -6 -30 -10c-8 1 -9 5 -4 12c11 3 22 6 34 10v68c-11 0 -46 -3 -30 12h30v56c4 7 8 7 12 0zM160 140
c-5 -13 -10 -25 -14 -36h96c16 -14 -17 -13 -28 -12c-7 -35 -18 -62 -34 -82c25 -13 44 -24 56 -32c5 -8 3 -12 -6 -12c-17 11 -37 22 -60 34c-24 -16 -53 -27 -88 -32c-8 3 -9 7 -2 12c28 4 54 13 78 26c-19 11 -35 19 -50 26c-8 4 -10 9 -6 16c9 16 17 31 24 44
c-13 2 -56 -6 -40 12h46c5 12 11 25 16 40c7 5 11 4 12 -4zM200 92h-60c-7 -13 -13 -28 -22 -42c-3 -6 -3 -9 2 -10l48 -24c17 23 28 48 32 76zM102 116c-14 -16 -12 17 -12 28c0 35 41 21 70 24c-5 9 -11 18 -18 26c1 8 5 10 12 6c9 -11 17 -21 22 -32c46 1 82 7 54 -54
c-7 -5 -11 -4 -12 4c11 25 11 38 2 38h-104c-20 2 -13 -23 -14 -40z" /><glyph glyph-name="uni6597" unicode="&#x6597;" d="M182 196c4 9 8 9 12 0v-150l48 4c5 -3 6 -7 2 -12l-50 -4v-68c-4 -5 -8 -5 -12 0v66l-170 -16c-7 3 -7 7 -2 12l172 16v152zM80 190c25 -20 49 -42 70 -66c1 -8 -2 -11 -10 -8c-21 24 -45 46 -70 66c-1 8 2 11 10 8zM58 128c28 -21 51 -42 68 -62c3 -8 0 -11 -8 -10
c-19 21 -42 43 -70 64c0 8 3 11 10 8z" /><glyph glyph-name="uni6625" unicode="&#x6625;" d="M116 186c-1 8 6 23 14 12l-2 -12h96c5 -4 5 -8 0 -12h-98l-6 -24h98c5 -4 5 -8 0 -12h-100c-3 -8 -6 -16 -10 -24h130c5 -4 5 -8 0 -12h-70c24 -27 49 -43 76 -50c5 -5 5 -9 -2 -12c-17 5 -31 11 -40 18v-72c1 -15 -5 -20 -20 -20h-108c-35 -2 -15 58 -20 88
c-15 -9 -29 -15 -42 -18c-5 0 -7 3 -4 10c39 13 65 32 80 56h-70c-7 4 -7 8 0 12h76c4 7 8 15 12 24h-64c-5 4 -5 8 0 12h66l6 24h-84c-5 4 -5 8 0 12h86zM154 102h-52c-11 -16 -19 -27 -26 -32h108c-15 12 -25 23 -30 32zM178 58h-100c-17 1 -11 -20 -12 -34h124
c-2 15 7 34 -12 34zM190 12h-124c1 -14 -4 -38 12 -34h100c18 -4 10 19 12 34z" /><glyph glyph-name="uni662F" unicode="&#x662F;" d="M64 194h120c33 2 16 -41 20 -68c1 -15 -5 -20 -20 -20h-120c-31 -4 -20 42 -20 68c0 13 7 20 20 20zM180 182h-112c-13 1 -12 -12 -12 -24h136c0 13 2 25 -12 24zM192 146h-136c0 -13 -2 -32 12 -28h112c17 -4 11 14 12 28zM20 88h216c5 -4 5 -8 0 -12h-104v-30h92
c5 -4 5 -8 0 -12h-92v-48c17 -7 52 -9 104 -8c5 -4 5 -8 0 -12c-92 -4 -137 6 -172 52c-12 -24 -28 -41 -48 -52c-7 -1 -9 2 -8 10c34 22 50 43 48 88c15 14 12 -17 12 -28c12 -23 29 -38 52 -46v86h-100c-5 4 -5 8 0 12z" /><glyph glyph-name="uni66F9" unicode="&#x66F9;" d="M86 188c-3 10 5 25 12 12v-12h56c-3 10 5 25 12 12v-12h72c7 -4 7 -8 0 -12h-72v-16c28 -1 68 8 64 -24c-3 -28 9 -60 -24 -60h-160c-30 -5 -23 33 -24 60c-2 32 36 23 64 24v16h-70c-7 1 -7 5 0 12h70zM154 176h-56v-16h56v16zM86 148c-23 -2 -58 10 -52 -24h52v24z
M154 148h-56v-24h56v24zM218 124c8 34 -28 22 -52 24v-24h52zM86 112h-52c-7 -33 25 -22 52 -24v24zM154 112h-56v-24h56v24zM218 112h-52v-24c24 3 60 -12 52 24zM66 60h128c32 2 16 -44 20 -72c1 -15 -5 -20 -20 -20h-128c-33 -5 -22 40 -24 68c0 16 8 24 24 24zM186 48
h-116c-15 1 -17 -11 -16 -26h148c1 16 1 27 -16 26zM202 10h-148c-1 -16 0 -33 16 -30h120c17 -4 11 16 12 30z" /><glyph glyph-name="uni6700" unicode="&#x6700;" d="M56 196h136c27 2 19 -25 20 -48c1 -15 -5 -20 -20 -20h-136c-28 -7 -30 68 0 68zM188 184h-128c-10 0 -13 -6 -12 -16h152c1 11 -1 16 -12 16zM200 156h-152c-1 -11 3 -18 12 -16h128c11 -2 13 5 12 16zM12 112h228c7 -4 7 -8 0 -12h-120v-92c9 4 27 1 16 -10l-16 -2
c0 -11 2 -44 -12 -28v26l-90 -12c-18 8 8 16 18 14v104c-11 0 -36 -2 -24 12zM108 100h-60v-24h60v24zM138 82c28 -5 89 13 86 -18c-5 -15 -15 -32 -30 -52c24 -20 41 -32 52 -36c4 -8 2 -12 -6 -12c-20 9 -38 22 -54 38c-15 -15 -31 -27 -48 -36c-7 -1 -9 2 -8 10
c20 11 35 23 46 36c-15 19 -24 38 -28 58c-10 -3 -20 6 -10 12zM108 64h-60v-24h60v24zM108 28h-60v-30l60 8v22zM210 62c2 14 -35 6 -50 8c4 -16 12 -32 24 -48c11 12 19 25 26 40z" /><glyph glyph-name="uni673A" unicode="&#x673A;" d="M64 198v-52c12 -1 46 5 32 -12h-32v-6c15 -21 26 -43 34 -64c-1 -7 -5 -9 -10 -6c-5 13 -13 29 -24 48v-136c-4 -7 -8 -7 -12 0v134c-7 -21 -18 -46 -34 -74c-7 -3 -10 -1 -10 6c20 36 33 69 40 98c-12 1 -50 -6 -36 12h40v52c4 5 8 5 12 0zM116 168c-1 30 36 22 62 22
c16 0 22 -7 22 -22v-172c-1 -14 9 -12 22 -12c11 0 15 15 14 50c4 5 8 5 12 0c-1 -53 -2 -67 -40 -62c-13 -1 -20 5 -20 20v174c3 20 -31 12 -48 12c-8 0 -12 -4 -12 -12c3 -84 1 -173 -40 -202c-7 -3 -10 0 -10 8c41 29 41 116 38 196z" /><glyph glyph-name="uni68A6" unicode="&#x68A6;" d="M92 94c22 1 0 -18 -2 -26h110c19 0 29 -7 24 -20c-25 -68 -101 -92 -204 -86c-7 4 -6 8 2 12c59 -1 101 4 126 16c-25 16 -52 33 -80 50c-13 -13 -27 -23 -40 -26c-8 -2 -11 2 -8 10c29 11 53 34 72 70zM198 56h-116l-6 -6c31 -20 59 -38 86 -54c23 15 39 32 48 52
c2 5 -3 8 -12 8zM132 164c-14 19 27 10 40 12c-2 10 0 38 12 22v-22h50c12 -20 -32 -9 -46 -12c13 -21 32 -43 56 -64c3 -8 0 -11 -8 -10c-24 23 -41 42 -52 58v-58c-4 -8 -8 -8 -12 0v52c-16 -20 -31 -35 -44 -46c-8 -1 -11 2 -8 10c20 15 37 34 50 58h-38zM64 176
c-1 10 -1 40 12 24v-24c13 -2 53 7 40 -12h-40v-4c13 -12 25 -22 34 -32c6 -6 3 -10 -6 -10c-9 9 -19 18 -28 26v-54c-4 -5 -8 -5 -12 0v54c-13 -19 -28 -35 -44 -50c-8 0 -11 3 -8 10c21 19 38 39 50 60h-46c-7 4 -7 8 0 12h48z" /><glyph glyph-name="uni6B4C" unicode="&#x6B4C;" d="M164 200c17 12 10 -17 8 -26h54c27 0 27 -33 2 -98c-7 -4 -11 -3 -12 4c21 55 24 82 8 82h-54c-5 -23 -11 -41 -18 -56c-7 -5 -11 -4 -12 4c11 23 19 53 24 90zM22 126c0 42 20 40 54 40c23 0 23 -17 22 -40c5 -28 -30 -19 -54 -20c-15 -1 -22 5 -22 20zM86 130
c7 30 -17 23 -38 24c-19 5 -21 -40 0 -36c16 3 42 -7 38 12zM22 46c-1 24 35 14 56 16c26 2 17 -23 20 -46c3 -30 -29 -19 -54 -22c-27 -3 -21 28 -22 52zM86 20c9 37 -17 28 -42 30c-16 1 -16 -47 4 -44c17 2 42 -7 38 14zM146 90c13 -12 -10 -14 -20 -12v-96
c-4 -20 -25 -24 -62 -12c-4 5 -3 9 4 12c76 -35 36 53 46 96h-100c-5 4 -5 8 0 12h132zM188 102c1 14 -8 57 12 44c-8 -78 26 -141 50 -172c0 -9 -3 -12 -10 -8c-19 23 -34 55 -46 98c-5 -36 -22 -69 -50 -100c-8 -4 -11 -1 -10 8c32 37 49 81 54 130zM18 194h128
c13 -12 -10 -14 -20 -12v-84c-4 -5 -8 -5 -12 0v84h-96c-5 4 -5 8 0 12z" /><glyph glyph-name="uni7075" unicode="&#x7075;" d="M34 198h162c40 3 25 -39 28 -72c1 -17 -9 -24 -30 -24h-160c-5 4 -5 8 0 12h158c23 -3 21 12 20 32h-168c-5 4 -5 8 0 12h168c0 15 2 28 -14 28h-164c-5 5 -5 9 0 12zM202 90c5 5 9 4 12 -4c-5 -17 -15 -37 -28 -58c-7 -3 -10 0 -10 8c12 17 21 35 26 54zM70 84
c-5 -19 -12 -37 -20 -54c-8 -7 -12 -5 -12 4c9 19 16 36 20 52c5 7 9 6 12 -2zM118 56c2 12 -6 50 12 36v-36c25 -37 63 -65 112 -82c7 -7 5 -11 -4 -12c-52 20 -89 47 -112 80c-13 -39 -51 -65 -112 -80c-7 3 -7 7 -2 12c61 15 98 42 106 82z" /><glyph glyph-name="uni7433" unicode="&#x7433;" d="M164 144c-14 13 12 13 22 12c2 13 -7 53 12 40v-40c12 -2 46 6 34 -12h-34c13 -63 34 -109 46 -132c0 -8 -3 -10 -10 -6c-12 23 -24 53 -36 92v-126c-4 -5 -8 -5 -12 0v124c-8 -36 -21 -67 -38 -92c-8 -3 -11 0 -10 8c25 36 41 80 46 132h-20zM14 172h62
c14 -13 -12 -13 -22 -12v-68c10 1 36 1 22 -12h-22v-78c13 5 23 9 28 12c5 0 7 -3 6 -10c-21 -11 -45 -19 -72 -26c-15 15 10 14 26 20v82c-11 0 -40 -4 -28 12h28v68c-11 0 -40 -4 -28 12zM110 156c2 13 -7 53 12 40v-40c11 0 40 2 26 -12h-26c9 -25 24 -46 34 -78
c-1 -8 -5 -9 -12 -4c-7 20 -14 39 -22 56v-146c-4 -5 -8 -5 -12 0v130c-4 -25 -16 -53 -36 -82c-7 -3 -10 0 -10 8c20 25 35 64 44 116c-11 0 -42 -3 -28 12h30z" /><glyph glyph-name="uni751F" unicode="&#x751F;" d="M126 194c4 5 8 5 12 0v-48h88c5 -4 5 -8 0 -12h-88v-68h84c5 -4 5 -8 0 -12h-84v-72h104c5 -4 5 -8 0 -12h-228c-4 4 -4 8 0 12h112v72h-90c-5 4 -5 8 0 12h90v68h-76c-7 -19 -15 -37 -26 -54c-8 -4 -11 -1 -10 8c20 31 32 63 36 96c5 7 9 6 12 -2c-1 -8 -4 -20 -8 -36
h72v48z" /><glyph glyph-name="uni753B" unicode="&#x753B;" d="M18 190h220c7 -4 7 -8 0 -12h-220c-5 4 -5 8 0 12zM76 154h98c17 0 24 -7 24 -22v-104c1 -16 -6 -22 -22 -22h-100c-15 -1 -22 6 -22 22v102c0 16 7 24 22 24zM120 142c-19 -3 -53 9 -54 -12v-44h54v56zM186 86c-4 20 11 56 -12 56h-42v-56h54zM18 92c4 5 8 5 12 0v-96
c0 -9 4 -12 12 -12h166c11 -1 14 3 14 14v94c4 5 8 5 12 0v-96c1 -17 -7 -24 -24 -24h-170c-15 -1 -22 6 -22 22v98zM120 74h-54c3 -19 -9 -56 12 -56h42v56zM186 74h-54v-56c19 4 54 -10 54 12v44z" /><glyph glyph-name="uni767D" unicode="&#x767D;" d="M122 202c23 5 3 -25 -2 -34h86c17 0 24 -8 24 -24v-148c1 -17 -7 -24 -24 -24h-156c-16 -1 -24 7 -24 24v148c-2 37 49 20 80 24c7 11 12 22 16 34zM202 156h-148c-30 -2 -11 -53 -16 -80h180v64c1 11 -4 16 -16 16zM218 64h-180c5 -26 -13 -80 16 -80h150
c11 -1 14 4 14 16v64z" /><glyph glyph-name="uni7684" unicode="&#x7684;" d="M58 164c4 7 3 50 18 32c-1 -12 -3 -23 -6 -32c22 0 48 5 48 -20v-144c4 -34 -48 -16 -76 -20c-13 -2 -20 5 -20 20v144c-1 20 16 21 36 20zM144 198c15 12 13 -12 10 -26c29 -5 84 14 84 -20l-2 -136c1 -41 -29 -52 -90 -32c-4 8 -3 12 4 12c51 -19 73 -11 74 24l2 128
c1 8 -3 12 -12 12h-62c-4 -19 -10 -35 -18 -50c-7 -4 -10 -2 -10 6c13 27 20 54 20 82zM106 140c1 22 -40 12 -60 12c-8 0 -12 -4 -12 -12v-60h72v60zM158 114c16 -23 29 -47 38 -72c-1 -11 -5 -12 -12 -4c-12 28 -24 51 -36 70c-1 8 2 10 10 6zM106 68h-72v-64
c1 -23 39 -7 60 -12c9 -1 12 3 12 12v64z" /><glyph glyph-name="uni771F" unicode="&#x771F;" d="M116 184c-2 28 21 21 12 0h104c5 -4 5 -8 0 -12h-106l-2 -20c30 -4 88 13 88 -20v-108c11 0 42 3 28 -12h-228c-14 14 13 13 24 12v108c-1 31 48 17 76 20l2 20h-98c-7 4 -7 8 0 12h100zM188 140h-128c-11 1 -13 -8 -12 -20h152c1 12 1 20 -12 20zM200 108h-152v-20h152
v20zM200 76h-152v-20h152v20zM200 44h-152v-20h152v20zM92 6c7 -1 8 -5 4 -12c-28 -13 -55 -22 -80 -26c-7 1 -8 5 -4 12c27 4 53 13 80 26zM154 6c31 -9 57 -19 80 -30c4 -5 3 -9 -4 -12c-28 12 -55 22 -80 30c-5 7 -4 11 4 12z" /><glyph glyph-name="uni79C0" unicode="&#x79C0;" d="M218 200c5 -4 5 -8 0 -12c-24 -3 -53 -5 -88 -6v-30h104c5 -4 5 -8 0 -12h-96c37 -29 73 -47 108 -52c4 -7 3 -11 -4 -12c-39 7 -76 25 -112 56c-2 -14 8 -57 -12 -44v42c-31 -27 -65 -45 -104 -56c-7 1 -8 5 -4 12c37 9 71 27 102 54h-94c-5 4 -5 8 0 12h100v30
c-11 -1 -39 -2 -84 -2c-5 4 -5 8 0 12c63 -1 124 1 184 8zM118 -12c71 -15 92 -21 96 30c2 28 -77 -8 -44 42c1 4 -2 6 -10 6h-50c-5 -53 -36 -87 -92 -100c-7 1 -8 5 -4 12c52 12 80 41 84 88h-52c-5 4 -5 8 0 12h120c26 1 17 -19 12 -32c7 -11 51 7 48 -24
c-6 -63 -28 -63 -112 -46c-4 5 -3 9 4 12z" /><glyph glyph-name="uni79D1" unicode="&#x79D1;" d="M98 198c7 -1 8 -5 4 -12c-11 -3 -22 -5 -34 -6v-50c12 -1 50 6 36 -12h-32c16 -21 29 -41 40 -60c1 -8 -2 -11 -10 -8c-11 19 -22 36 -34 52v-136c-4 -5 -8 -5 -12 0v118c-9 -21 -22 -42 -38 -62c-7 -1 -9 1 -8 8c23 31 37 60 44 88c-13 2 -53 -7 -40 12h42v48
c-12 1 -46 -5 -32 12c28 -1 53 1 74 8zM220 194v-150c9 2 37 8 24 -8l-24 -4v-66c-4 -5 -8 -5 -12 0v64l-104 -12c-5 4 -5 8 0 12l104 12v152c4 7 8 7 12 0zM142 192c17 -17 37 -39 58 -64c3 -8 0 -11 -8 -10c-23 27 -42 48 -58 64c-1 8 1 11 8 10zM126 126
c23 -21 43 -41 60 -60c3 -8 -1 -11 -10 -8c-21 23 -41 42 -58 58c-1 7 1 10 8 10z" /><glyph glyph-name="uni7A0B" unicode="&#x7A0B;" d="M126 192h88c28 2 18 -28 20 -52c1 -15 -5 -20 -20 -20h-88c-26 -5 -19 29 -20 52c0 13 7 20 20 20zM210 180h-80c-17 1 -11 -21 -12 -36c0 -9 4 -12 12 -12h80c19 -4 10 21 12 36c1 8 -3 12 -12 12zM102 100h136c7 -4 7 -8 0 -12h-64v-44h56c7 -4 7 -8 0 -12h-56v-48h68
c5 -4 5 -8 0 -12h-144c-7 4 -7 8 0 12h64v48h-56c-7 4 -7 8 0 12h56v44h-60c-7 4 -7 8 0 12zM86 198c7 0 9 -3 6 -10c-7 -4 -15 -8 -26 -12v-46c11 0 42 3 28 -12h-28v-6c13 -17 24 -33 32 -48c0 -7 -3 -9 -10 -6c-5 9 -13 21 -22 34v-122c-4 -7 -8 -7 -12 0v118
c-8 -20 -18 -39 -30 -56c-7 -5 -11 -4 -12 4c19 28 33 55 42 82c-12 1 -50 -6 -36 12h36v42c-11 -3 -21 -5 -30 -6c-7 3 -7 7 -2 12c24 4 45 11 64 20z" /><glyph glyph-name="uni7B80" unicode="&#x7B80;" d="M50 202c17 8 11 -10 6 -16h70c16 -18 -27 -10 -40 -12c4 -9 7 -19 8 -30c-3 -9 -7 -10 -12 -2c-1 11 -4 21 -8 32h-24c-8 -13 -17 -25 -26 -36c-9 -4 -13 -2 -12 6c15 17 27 37 38 58zM152 200c13 11 13 -9 6 -14h76c16 -18 -27 -10 -40 -12c4 -9 7 -19 8 -30
c-1 -9 -5 -11 -12 -4c-3 12 -6 23 -10 34h-28c-7 -11 -15 -23 -24 -36c-8 -4 -12 -2 -12 6c13 19 25 37 36 56zM48 136c0 7 3 9 10 6c8 -12 13 -24 16 -36c-1 -7 -5 -8 -10 -4c-4 12 -9 23 -16 34zM94 130h110c16 0 22 -7 22 -22v-122c3 -26 -30 -27 -50 -16
c-5 7 -4 11 4 12c24 -9 34 -8 34 4v120c1 8 -3 12 -12 12h-108c-7 4 -7 8 0 12zM46 102v-134c-4 -5 -8 -5 -12 0v134c4 7 8 7 12 0zM74 70c-3 39 54 21 86 24c37 3 18 -52 22 -84c5 -36 -56 -15 -86 -20c-36 -5 -19 50 -22 80zM158 82h-60c-17 1 -11 -20 -12 -34h84
c-3 15 8 34 -12 34zM170 36h-84c1 -14 -4 -38 12 -34h60c19 -4 10 19 12 34z" /><glyph glyph-name="uni7B97" unicode="&#x7B97;" d="M56 200c18 7 6 -16 0 -20h64c14 -18 -24 -11 -36 -12c3 -5 5 -11 6 -18c-10 -16 -15 10 -18 18h-22c-9 -12 -18 -21 -26 -28c-8 -3 -11 0 -10 8c15 13 29 31 42 52zM152 200c18 11 10 -14 4 -20h80c13 -19 -29 -10 -42 -12c5 -7 9 -13 10 -20c-12 -15 -16 12 -24 20h-30
c-5 -8 -11 -15 -18 -22c-8 -3 -11 -1 -10 6c15 16 25 32 30 48zM56 140h144c34 1 15 -47 20 -76c4 -24 -18 -20 -40 -20v-24h60c5 -4 5 -8 0 -12h-60c-2 -13 7 -53 -12 -40v40h-80c-5 -21 -21 -36 -48 -44c-7 1 -8 5 -4 12c20 5 33 16 40 32h-64c-5 4 -5 8 0 12h66l2 24
c-23 0 -46 -6 -44 20c3 28 -11 77 20 76zM196 128h-136c-10 0 -13 -6 -12 -16h160c1 11 -3 16 -12 16zM208 100h-160v-16h160v16zM48 72c-1 -11 3 -18 12 -16h136c9 -1 13 4 12 16h-160zM168 20v24h-76l-2 -24h78z" /><glyph glyph-name="uni81EA" unicode="&#x81EA;" d="M116 194c20 11 8 -20 4 -26h80c15 0 20 -7 20 -20v-156c1 -15 -5 -20 -20 -20h-148c-13 -1 -20 5 -20 20v156c1 32 46 16 74 20c4 9 7 18 10 26zM196 156h-140c-20 0 -9 -31 -12 -48h164c-4 18 10 49 -12 48zM208 96h-164v-48h164v48zM208 36h-164c3 -18 -9 -52 12 -52
h140c22 -3 8 34 12 52z" /><glyph glyph-name="uni82B3" unicode="&#x82B3;" d="M72 196c11 16 14 -10 12 -20h92c-2 10 1 36 12 20v-20h48c5 -4 5 -8 0 -12h-48c0 -11 2 -44 -12 -28v28h-92c0 -11 2 -44 -12 -28v28h-52c-5 4 -5 8 0 12h52v20zM132 150c7 -9 12 -19 16 -30h92c5 -4 5 -8 0 -12h-148v-36h100c36 -3 23 -27 22 -66
c-2 -49 -60 -43 -96 -26c-3 7 -1 10 6 10c36 -14 75 -21 78 18c3 31 13 52 -12 52h-98c-1 -41 -23 -73 -66 -96c-8 1 -9 5 -4 12c52 31 63 61 58 132h-64c-5 4 -5 8 0 12h118c-3 8 -7 16 -12 24c0 8 3 10 10 6z" /><glyph glyph-name="uni83F2" unicode="&#x83F2;" d="M68 182c-3 10 3 30 12 16v-16h96c-3 10 3 30 12 16v-16h52c7 -4 7 -8 0 -12h-52c1 -10 1 -40 -12 -24v24h-96c1 -10 1 -40 -12 -24v24h-56c-5 4 -5 8 0 12h56zM144 152c13 14 13 -12 12 -22h76c7 -4 7 -8 0 -12h-76v-40h72c7 -4 7 -8 0 -12h-72v-48h84c7 -4 7 -8 0 -12
h-84c-2 -13 7 -49 -12 -38v184zM92 130c-2 10 0 33 12 20v-184c-19 -14 -10 27 -12 40h-74c-7 4 -7 8 0 12h74v48h-70c-5 4 -5 8 0 12h70v40h-72c-5 4 -5 8 0 12h72z" /><glyph glyph-name="uni8BA1" unicode="&#x8BA1;" d="M176 198v-88h64c7 -4 7 -8 0 -12h-64v-132c-4 -7 -8 -7 -12 0v132h-72c-5 4 -5 8 0 12h72v88c4 7 8 7 12 0zM52 196c13 -15 24 -27 32 -38c1 -9 -2 -12 -10 -8c-9 12 -20 25 -32 38c-1 8 2 11 10 8zM16 122c-16 16 21 12 32 12c15 0 20 -7 20 -20v-122c0 -9 12 -3 36 20
c8 3 11 0 8 -8c-13 -13 -27 -24 -42 -32c-9 -5 -14 -1 -14 14v126c3 16 -26 8 -40 10z" /><glyph glyph-name="uni8BDA" unicode="&#x8BDA;" d="M174 164c0 11 -3 42 12 28v-28h32l-14 18c0 7 3 9 10 6c13 -15 23 -28 28 -40c0 -16 -15 -3 -16 4h-40c3 -37 7 -73 12 -108c12 25 19 51 20 78c4 7 8 7 12 0c-1 -35 -10 -67 -26 -96c4 -17 9 -31 16 -40s11 3 14 38c4 5 8 5 12 0c-5 -91 -39 -62 -52 -10
c-17 -20 -37 -35 -58 -46c-8 0 -10 3 -6 10c23 12 42 29 58 52c-7 35 -11 75 -14 122c-32 -4 -85 17 -72 -36c24 -1 61 7 56 -20c-6 -42 17 -120 -48 -86c-4 7 -3 11 4 12c50 -28 25 41 32 70c5 19 -28 10 -44 12c2 -59 -3 -112 -20 -138c-7 -4 -10 -2 -10 6
c21 34 19 109 18 172c0 32 55 16 84 20zM40 190c15 -11 25 -21 32 -32c0 -8 -3 -10 -10 -6c-7 9 -17 19 -30 30c-1 5 1 8 8 8zM10 112c-16 13 14 12 24 12c15 0 20 -7 20 -20v-102c0 -8 6 -3 18 14c7 3 10 0 10 -8c-27 -35 -40 -41 -40 -18v112c4 13 -20 9 -32 10z" /><glyph glyph-name="uni8FD9" unicode="&#x8FD9;" d="M158 166c-8 11 -15 19 -22 26c-1 7 1 10 8 10c8 -8 16 -17 24 -28c1 -8 -2 -11 -10 -8zM238 162c14 -17 -21 -11 -32 -12c-4 -33 -14 -63 -30 -90c24 -27 42 -47 54 -62c0 -8 -3 -11 -10 -8c-15 17 -32 37 -52 58c-21 -25 -46 -43 -74 -54c-9 -1 -12 2 -8 10
c32 13 56 31 72 54c-24 27 -45 49 -62 66c-1 8 1 11 8 10c20 -20 41 -41 62 -64c15 24 23 51 26 80h-114c-5 4 -5 8 0 12h160zM34 196c12 -19 20 -35 24 -50c-3 -7 -6 -9 -10 -6c-7 17 -15 33 -24 48c0 8 3 11 10 8zM14 98c-17 18 54 20 44 -8v-76c24 -49 112 -34 184 -36
c7 -4 7 -8 0 -12c-73 4 -156 -15 -188 32c-8 -11 -20 -21 -36 -32c-8 -1 -11 2 -8 10c16 11 28 21 36 32v78c4 16 -18 11 -32 12z" /><glyph glyph-name="uni8FFD" unicode="&#x8FFD;" d="M154 198c20 4 2 -19 -2 -24c27 -4 75 12 72 -20c-2 -23 7 -50 -20 -50h-100v-26h108c28 2 18 -28 20 -52c1 -15 -5 -20 -20 -20h-100c-13 -1 -20 6 -20 22v126c0 24 23 20 46 20zM40 196c11 -15 20 -29 28 -44c0 -9 -3 -12 -10 -8c-8 16 -17 31 -28 44c0 8 3 11 10 8z
M200 162h-84c-20 0 -9 -29 -12 -46h96c19 -4 10 19 12 34c1 8 -3 12 -12 12zM16 106c-16 14 12 12 22 12c16 0 22 -7 22 -22v-80c20 -25 41 -38 62 -38h114c8 -4 8 -8 0 -12c-78 6 -143 -20 -180 36c-9 -17 -20 -29 -32 -36c-8 -1 -11 2 -8 10c16 11 27 23 32 38v80
c4 16 -18 11 -32 12zM208 66h-104c3 -17 -8 -48 12 -48h92c19 -4 10 21 12 36c1 8 -3 12 -12 12z" /><glyph glyph-name="uni91CC" unicode="&#x91CC;" d="M54 198h144c17 0 24 -7 24 -20v-88c5 -42 -55 -17 -88 -24v-32h92c5 -4 5 -8 0 -12h-92v-40h100c5 -4 5 -8 0 -12h-216c-5 4 -5 8 0 12h104v40h-92c-5 3 -5 7 0 12h92v32c-32 6 -91 -16 -92 20v92c0 13 8 20 24 20zM122 186h-68c-19 1 -10 -28 -12 -44h80v44zM198 186
h-64v-44h76c-4 17 10 44 -12 44zM122 130h-80c3 -18 -9 -52 12 -52h68v52zM210 130h-76v-52h66c20 -2 6 35 10 52z" /><glyph glyph-name="uni94AE" unicode="&#x94AE;" d="M38 188c13 18 13 -13 8 -20h48c5 -4 5 -8 0 -12h-52c-7 -16 -13 -27 -18 -32c-8 -4 -11 -2 -10 6c12 15 20 34 24 58zM118 180h88c15 0 20 -7 20 -20l-4 -176c10 2 36 -1 20 -12h-144c-14 18 24 11 36 12l4 84c-11 0 -44 -2 -28 12h30l4 88c-11 -1 -42 -2 -26 12z
M214 156c1 21 -39 8 -58 12l-4 -88h60zM26 116h72c14 -18 -24 -11 -36 -12v-40c12 -1 52 5 36 -12h-36c4 -32 -14 -100 26 -46c8 3 11 0 10 -8c-12 -15 -21 -23 -28 -26c-33 -11 -16 53 -20 80c-11 0 -48 -4 -32 12h32v40c-10 -1 -40 -1 -24 12zM150 68l-4 -84h64l2 84h-62z
" /><glyph glyph-name="uni95E8" unicode="&#x95E8;" d="M48 198c9 -15 17 -28 24 -40c1 -8 -2 -10 -10 -6c-7 11 -15 23 -24 38c0 8 3 11 10 8zM86 192h126c19 0 26 -7 26 -22v-184c4 -25 -43 -18 -58 -10c-5 8 -4 13 4 14c31 -13 42 -13 42 2v174c1 9 -3 14 -14 14h-126c-7 4 -7 8 0 12zM38 152v-180c-4 -7 -8 -7 -12 0v180
c4 8 8 8 12 0z" /><glyph glyph-name="uni9662" unicode="&#x9662;" d="M154 202c7 -13 11 -23 14 -30c50 -1 96 15 66 -58c-7 -5 -11 -4 -12 4c11 28 10 42 -2 42h-114c-19 1 -10 -26 -12 -42c-16 -19 -12 23 -12 34c1 32 44 16 72 20c-3 7 -7 15 -12 24c0 7 4 9 12 6zM14 172c-2 24 24 23 46 20c46 -6 -6 -51 -2 -78c23 -26 40 -107 -24 -86
c-4 7 -3 11 4 12c19 -7 28 -3 28 12c0 19 -4 39 -20 62c-7 20 36 57 10 66c-14 0 -30 3 -30 -12v-200c-4 -5 -8 -5 -12 0v204zM106 128h104c5 -4 5 -8 0 -12h-104c-5 4 -5 8 0 12zM86 84h148c5 -4 5 -8 0 -12h-48v-74c-1 -17 13 -14 28 -14c12 -3 17 11 16 40c4 7 8 7 12 0
c2 -46 -7 -52 -44 -52c-41 0 -18 65 -24 100h-40c4 -52 -18 -88 -66 -108c-7 1 -8 5 -4 12c41 19 61 51 58 96c-12 1 -52 -5 -36 12z" /><glyph glyph-name="uni9752" unicode="&#x9752;" d="M118 186c-2 10 2 28 12 16v-16h92c5 -4 5 -8 0 -12h-92v-20h80c5 -4 5 -8 0 -12h-80v-20h104c5 -4 5 -8 0 -12h-216c-5 4 -5 8 0 12h100v20h-80c-5 4 -5 8 0 12h80v20h-92c-5 4 -5 8 0 12h92zM62 94h128c16 0 22 -7 22 -20v-94c-5 -22 -37 -17 -60 -10c-4 5 -3 9 4 12
c28 -8 44 -7 44 2v30h-148v-46c-4 -7 -8 -7 -12 0v104c0 15 7 22 22 22zM188 82h-124c-12 1 -13 -10 -12 -22h148c0 13 2 23 -12 22zM200 48h-148v-22h148v22z" /></font>
</defs>
</svg>
